<svg width="24" height="24" viewBox="0 0 24 24" fill="currentColor" xmlns="http://www.w3.org/2000/svg"
    viewBox="0 0 24 24">
<path d="M12.93 4.78999H7.35C3.25 4.78999 2 6.03999 2 10.14V13.86C2 17.96 3.25 19.21 7.35 19.21H12.93C17.03 19.21 18.28 17.96 18.28 13.86V10.14C18.28 6.03999 17.03 4.78999 12.93 4.78999Z" fill="currentColor"/>
<path d="M20.42 9C20.28 8.99 20.1 8.98 19.9 8.98C19.51 8.98 19.2 9.29 19.2 9.68V14.33C19.2 14.72 19.51 15.03 19.9 15.03C20.1 15.03 20.27 15.02 20.44 15.01C22 14.83 22 13.73 22 12.93V11.07C22 10.27 22 9.17 20.42 9Z" fill="currentColor"/>
</svg>
