<svg width="24" height="24" viewBox="0 0 24 24" fill="none" xmlns="http://www.w3.org/2000/svg">
<path d="M20.98 3.02C20.11 2.15 18.88 1.81 17.69 2.11L7.89 4.56C6.24 4.97 4.97 6.25 4.56 7.89L2.11 17.7C1.81 18.89 2.15 20.12 3.02 20.99C3.68 21.64 4.55 22 5.45 22C5.73 22 6.02 21.97 6.3 21.89L16.11 19.44C17.75 19.03 19.03 17.76 19.44 16.11L21.89 6.3C22.19 5.11 21.85 3.88 20.98 3.02ZM12 15.88C9.86 15.88 8.12 14.14 8.12 12C8.12 9.86 9.86 8.12 12 8.12C14.14 8.12 15.88 9.86 15.88 12C15.88 14.14 14.14 15.88 12 15.88Z" fill="#292D32"/>
</svg>
