<svg width="24" height="24" viewBox="0 0 24 24" fill="none" xmlns="http://www.w3.org/2000/svg">
<path d="M21.77 2.23C21.47 1.93 20.98 1.93 20.68 2.23L2.23 20.69C1.93 20.99 1.93 21.48 2.23 21.78C2.38 21.92 2.57 22 2.77 22C2.97 22 3.16 21.92 3.31 21.77L21.77 3.31C22.08 3.01 22.08 2.53 21.77 2.23Z" fill="#292D32"/>
<path d="M14.82 3.52V9.18L9.18 14.82V13.28H6.09C4.69 13.28 4.3 12.42 5.23 11.37L12 3.67L12.8 2.76C13.91 1.5 14.82 1.84 14.82 3.52Z" fill="#292D32"/>
<path d="M18.77 12.63L12 20.33L11.2 21.24C10.09 22.5 9.18 22.16 9.18 20.48V17.82L16.28 10.72H17.91C19.31 10.72 19.7 11.58 18.77 12.63Z" fill="#292D32"/>
</svg>
