<svg width="24" height="24" viewBox="0 0 24 24" fill="none" xmlns="http://www.w3.org/2000/svg">
<path d="M17.02 2.88C16.54 2.4 15.58 2 14.9 2H9.1C8.42 2 7.46 2.4 6.98 2.88L2.88 6.98C2.4 7.46 2 8.42 2 9.1V14.9C2 15.58 2.4 16.54 2.88 17.02L4.41 18.55L18.55 4.41L17.02 2.88Z" fill="#292D32"/>
<path d="M21.12 6.98L19.61 5.47L5.47 19.61L6.98 21.12C7.46 21.6 8.42 22 9.1 22H14.9C15.58 22 16.54 21.6 17.02 21.12L21.12 17.02C21.6 16.54 22 15.58 22 14.9V9.1C22 8.42 21.6 7.46 21.12 6.98Z" fill="#292D32"/>
<path d="M2.48999 20.47C2.19999 20.76 2.19999 21.24 2.48999 21.53C2.63999 21.68 2.82999 21.75 3.01999 21.75C3.20999 21.75 3.39999 21.68 3.54999 21.53L5.46999 19.61L4.40999 18.55L2.48999 20.47Z" fill="#292D32"/>
<path d="M21.53 3.55001C21.82 3.26001 21.82 2.78001 21.53 2.49001C21.24 2.20001 20.76 2.20001 20.47 2.49001L18.55 4.41001L19.61 5.47001L21.53 3.55001Z" fill="#292D32"/>
</svg>
