<svg width="24" height="24" viewBox="0 0 24 24" fill="currentColor" xmlns="http://www.w3.org/2000/svg"
    viewBox="0 0 24 24">
<path d="M20.04 6.82L14.28 2.79C12.71 1.69 10.3 1.75 8.79001 2.92L3.78001 6.83C2.78001 7.61 1.99001 9.21 1.99001 10.47V17.37C1.99001 19.92 4.06001 22 6.61001 22H17.39C19.94 22 22.01 19.93 22.01 17.38V10.6C22.01 9.25 21.14 7.59 20.04 6.82ZM12.75 18C12.75 18.41 12.41 18.75 12 18.75C11.59 18.75 11.25 18.41 11.25 18V15C11.25 14.59 11.59 14.25 12 14.25C12.41 14.25 12.75 14.59 12.75 15V18Z" fill="currentColor"/>
</svg>
