<svg width="24" height="24" viewBox="0 0 24 24" fill="none" xmlns="http://www.w3.org/2000/svg">
<path d="M20.86 8.37L13.93 2.83C12.86 1.97 11.13 1.97 10.07 2.82L3.13999 8.37C2.35999 8.99 1.85999 10.3 2.02999 11.28L3.35999 19.24C3.59999 20.66 4.95999 21.81 6.39999 21.81H17.6C19.03 21.81 20.4 20.65 20.64 19.24L21.97 11.28C22.13 10.3 21.63 8.99 20.86 8.37ZM12.71 17.2C12.51 17.4 12.26 17.5 12 17.5C11.74 17.5 11.49 17.4 11.29 17.21C10.9 16.82 10.9 16.19 11.29 15.8C11.68 15.41 12.32 15.41 12.71 15.8C13.1 16.18 13.1 16.81 12.71 17.2ZM14.66 14.9C14.51 15.05 14.32 15.13 14.12 15.13C13.93 15.13 13.75 15.06 13.6 14.92C12.63 13.99 11.37 13.99 10.39 14.92C10.09 15.21 9.61999 15.2 9.32999 14.9C9.03999 14.6 9.04999 14.13 9.34999 13.84C10.9 12.35 13.07 12.35 14.63 13.84C14.94 14.12 14.95 14.6 14.66 14.9ZM16.78 12.78C16.63 12.93 16.44 13.01 16.24 13.01C16.05 13.01 15.86 12.94 15.72 12.8C15.25 12.34 14.72 11.97 14.16 11.7C12.76 11.03 11.23 11.03 9.83999 11.7C9.27999 11.97 8.75999 12.34 8.27999 12.8C7.98999 13.09 7.50999 13.09 7.21999 12.79C6.92999 12.49 6.93999 12.02 7.22999 11.73C7.81999 11.15 8.47999 10.69 9.18999 10.35C11 9.48 13 9.48 14.8 10.35C15.51 10.69 16.17 11.15 16.76 11.73C17.06 12.01 17.07 12.49 16.78 12.78Z" fill="#292D32"/>
</svg>
