<svg width="24" height="24" viewBox="0 0 24 24" fill="currentColor" xmlns="http://www.w3.org/2000/svg"
    viewBox="0 0 24 24">
<path d="M20.54 19.04C20.39 19.19 20.2 19.26 20.01 19.26C19.82 19.26 19.63 19.19 19.48 19.04L14.53 14.09L15.06 13.56L15.59 13.03L20.54 17.98C20.83 18.27 20.83 18.75 20.54 19.04Z" fill="currentColor"/>
<path d="M6.47 9.28L12.27 15.08C12.66 15.47 12.66 16.1 12.27 16.49L11.37 17.4C10.56 18.2 9.28 18.2 8.48 17.4L4.14 13.06C3.35 12.27 3.35 10.98 4.14 10.18L5.05 9.27C5.44 8.89 6.08 8.89 6.47 9.28Z" fill="currentColor"/>
<path d="M18.59 10.19L14.78 13.99C14.38 14.39 13.74 14.39 13.34 13.99L7.55999 8.20999C7.15999 7.80999 7.15999 7.16999 7.55999 6.76999L11.37 2.95999C12.16 2.16999 13.45 2.16999 14.25 2.95999L18.59 7.29999C19.38 8.09999 19.38 9.37999 18.59 10.19Z" fill="currentColor"/>
<path d="M8 21.75H2C1.59 21.75 1.25 21.41 1.25 21C1.25 20.59 1.59 20.25 2 20.25H8C8.41 20.25 8.75 20.59 8.75 21C8.75 21.41 8.41 21.75 8 21.75Z" fill="currentColor"/>
</svg>
