<svg width="24" height="24" viewBox="0 0 24 24" fill="currentColor" xmlns="http://www.w3.org/2000/svg"
    viewBox="0 0 24 24">
<path d="M19.08 15.72C18.49 12.19 15.1 9.32 11.52 9.32C7.63 9.32 4.21 12.47 3.88 16.35C3.75 17.85 4.23 19.27 5.22 20.34C6.2 21.41 7.58 22 9.08 22H13.76C15.45 22 16.93 21.34 17.94 20.15C18.95 18.96 19.35 17.38 19.08 15.72Z" fill="currentColor"/>
<path d="M10.28 7.86C11.8982 7.86 13.21 6.54819 13.21 4.93C13.21 3.31181 11.8982 2 10.28 2C8.66181 2 7.35 3.31181 7.35 4.93C7.35 6.54819 8.66181 7.86 10.28 7.86Z" fill="currentColor"/>
<path d="M16.94 9.03C18.2876 9.03 19.38 7.93757 19.38 6.59C19.38 5.24243 18.2876 4.15 16.94 4.15C15.5924 4.15 14.5 5.24243 14.5 6.59C14.5 7.93757 15.5924 9.03 16.94 9.03Z" fill="currentColor"/>
<path d="M20.55 12.93C21.627 12.93 22.5 12.057 22.5 10.98C22.5 9.90304 21.627 9.03 20.55 9.03C19.473 9.03 18.6 9.90304 18.6 10.98C18.6 12.057 19.473 12.93 20.55 12.93Z" fill="currentColor"/>
<path d="M3.94 10.98C5.28757 10.98 6.38 9.88757 6.38 8.54C6.38 7.19243 5.28757 6.1 3.94 6.1C2.59243 6.1 1.5 7.19243 1.5 8.54C1.5 9.88757 2.59243 10.98 3.94 10.98Z" fill="currentColor"/>
</svg>
