<svg width="24" height="24" viewBox="0 0 24 24" fill="none" xmlns="http://www.w3.org/2000/svg">
<path d="M20.86 8.56L13.93 3.02C12.86 2.16 11.13 2.16 10.07 3.01L3.13999 8.56C2.35999 9.18 1.85999 10.49 2.02999 11.47L3.35999 19.43C3.59999 20.85 4.95999 22 6.39999 22H17.6C19.03 22 20.4 20.84 20.64 19.43L21.97 11.47C22.13 10.49 21.63 9.18 20.86 8.56ZM9.37999 17.38C8.81999 17.38 8.37999 16.93 8.37999 16.38C8.37999 15.83 8.82999 15.38 9.37999 15.38C9.92999 15.38 10.38 15.83 10.38 16.38C10.38 16.93 9.92999 17.38 9.37999 17.38ZM12.39 17.12C12.38 17.12 12.38 17.12 12.37 17.12C11.96 17.12 11.63 16.79 11.62 16.39C11.59 15.04 10.7 14.15 9.34999 14.12C8.93999 14.11 8.60999 13.77 8.61999 13.35C8.62999 12.94 8.95999 12.62 9.36999 12.62C9.37999 12.62 9.37999 12.62 9.38999 12.62C11.54 12.67 13.08 14.2 13.12 16.35C13.13 16.77 12.81 17.12 12.39 17.12ZM15.38 17.12C14.96 17.12 14.63 16.79 14.62 16.38C14.61 15.72 14.5 15.09 14.3 14.5C13.79 13.04 12.7 11.96 11.24 11.44C10.65 11.23 10.02 11.12 9.35999 11.12C8.94999 11.12 8.60999 10.78 8.61999 10.36C8.61999 9.95 8.95999 9.62 9.36999 9.62H9.37999C10.21 9.63 11 9.77 11.74 10.03C13.63 10.7 15.04 12.11 15.71 14C15.97 14.74 16.11 15.54 16.12 16.36C16.13 16.78 15.8 17.12 15.38 17.12Z" fill="#292D32"/>
</svg>
