<svg width="24" height="24" viewBox="0 0 24 24" fill="currentColor" xmlns="http://www.w3.org/2000/svg"
    viewBox="0 0 24 24">
<path d="M19.14 20.25C18.95 20.25 18.76 20.18 18.61 20.04C18.31 19.75 18.31 19.28 18.6 18.98C20.31 17.24 21.25 14.94 21.25 12.5C21.25 7.4 17.1 3.25 12 3.25C6.9 3.25 2.75 7.4 2.75 12.5C2.75 14.93 3.68 17.22 5.38 18.96C5.67 19.26 5.66 19.73 5.37 20.02C5.07 20.31 4.6 20.3 4.31 20.01C2.34 17.99 1.25 15.32 1.25 12.5C1.25 6.57 6.07 1.75 12 1.75C17.93 1.75 22.75 6.57 22.75 12.5C22.75 15.33 21.66 18.01 19.67 20.03C19.53 20.18 19.33 20.25 19.14 20.25Z" fill="currentColor"/>
<path d="M12 22C14.1429 22 15.88 20.2629 15.88 18.12C15.88 15.9771 14.1429 14.24 12 14.24C9.85713 14.24 8.12 15.9771 8.12 18.12C8.12 20.2629 9.85713 22 12 22Z" fill="currentColor"/>
<path d="M16 8.5C14.9 8.5 14 9.4 14 10.5V11.25C14 11.94 14.56 12.5 15.25 12.5H16C17.1 12.5 18 11.6 18 10.5C18 9.4 17.1 8.5 16 8.5Z" fill="currentColor"/>
</svg>
