<svg width="24" height="24" viewBox="0 0 24 24" fill="none" xmlns="http://www.w3.org/2000/svg">
<path d="M21.96 11.66C20.77 10.91 19.39 10.5 17.97 10.5C13.83 10.5 10.47 13.86 10.47 18C10.47 19.42 10.87 20.79 11.62 21.98C11.16 21.97 10.69 21.92 10.21 21.85C6.10001 21.15 2.79001 17.82 2.11001 13.7C0.980005 6.85 6.82001 1.01 13.67 2.14C17.79 2.82 21.12 6.13 21.82 10.24C21.9 10.72 21.95 11.2 21.96 11.66Z" fill="#292D32"/>
<path d="M13.38 21.86C12.5 20.82 11.97 19.47 11.97 18C11.97 14.69 14.66 12 17.97 12C19.44 12 20.79 12.53 21.83 13.41" fill="#292D32"/>
</svg>
