<svg width="24" height="24" viewBox="0 0 24 24" fill="currentColor" xmlns="http://www.w3.org/2000/svg"
    viewBox="0 0 24 24">
<path d="M17.88 6.12001L3.92 20.08C3.49 20.51 2.77 20.47 2.42 19.98C1.92 19.29 1.82 18.33 2.34 17.5L5.1 13.07C5.47 12.48 5.47 11.52 5.1 10.93L2.34 6.50001C1.41 5.02001 2.48 3.10001 4.22 3.10001H15.67C16.35 3.10001 17.19 3.57001 17.55 4.14001L18.02 4.88001C18.26 5.28001 18.21 5.79001 17.88 6.12001Z" fill="currentColor"/>
<path d="M21.63 13.11L16.45 20.01C16.09 20.5 15.29 20.9 14.67 20.9H7.50999C6.61999 20.9 6.16999 19.82 6.79999 19.19L18.32 7.67999C18.77 7.22999 19.54 7.30999 19.88 7.85999L21.73 10.83C22.13 11.47 22.09 12.5 21.63 13.11Z" fill="currentColor"/>
</svg>
