<svg width="24" height="24" viewBox="0 0 24 24" fill="none" xmlns="http://www.w3.org/2000/svg">
<path d="M11.25 3.9V12.92C11.25 13.25 11.09 13.55 10.82 13.74L3.61001 18.79C3.02001 19.2 2.18001 18.88 2.05001 18.17C1.90001 17.31 2.10001 16.3 2.70001 15.21L5.82001 9.6L8.76001 4.31C8.99001 3.9 9.24001 3.54 9.50001 3.23C10.1 2.53 11.25 2.98 11.25 3.9Z" fill="#292D32"/>
<path d="M20.39 18.79L13.18 13.74C12.91 13.55 12.75 13.25 12.75 12.92V3.9C12.75 2.98 13.9 2.53 14.5 3.23C14.76 3.54 15.01 3.9 15.24 4.31L18.18 9.6L21.3 15.21C21.9 16.3 22.1 17.31 21.95 18.17C21.82 18.88 20.98 19.2 20.39 18.79Z" fill="#292D32"/>
<path d="M5.26 19.14L11.41 15.04C11.74 14.82 12.28 14.82 12.61 15.04L18.76 19.14C20.39 20.23 20.12 21.12 18.16 21.12H5.85C3.9 21.11 3.63 20.22 5.26 19.14Z" fill="#292D32"/>
</svg>
