<svg width="24" height="24" viewBox="0 0 24 24" fill="none" xmlns="http://www.w3.org/2000/svg">
<path d="M18.69 11.53C18.12 11.38 17.45 11.3 16.65 11.3C15.54 11.3 15.13 11.57 14.56 12C14.53 12.02 14.5 12.05 14.47 12.08L13.52 13.09C12.72 13.93 11.28 13.94 10.48 13.08L9.52999 12.08C9.49999 12.05 9.46999 12.02 9.43999 12C8.86999 11.57 8.45999 11.3 7.34999 11.3C6.54999 11.3 5.87999 11.38 5.30999 11.53C2.92999 12.17 2.92999 14.06 2.92999 15.72V16.65C2.92999 19.16 2.92999 22 8.27999 22H15.72C19.27 22 21.07 20.2 21.07 16.65V15.72C21.07 14.06 21.07 12.17 18.69 11.53ZM14.33 18.4H9.66999C9.28999 18.4 8.97999 18.09 8.97999 17.7C8.97999 17.31 9.28999 17 9.66999 17H14.33C14.71 17 15.02 17.31 15.02 17.7C15.02 18.09 14.71 18.4 14.33 18.4Z" fill="#292D32"/>
<path d="M12.67 2.67C12.67 2.3 12.37 2 12 2C11.63 2 11.33 2.3 11.33 2.67V4H12.68V2.67H12.67Z" fill="#292D32"/>
<path d="M19.21 8.42V10.12C19.17 10.1 19.12 10.09 19.08 10.08H19.07C18.36 9.89 17.57 9.8 16.65 9.8C15.11 9.8 14.38 10.25 13.72 10.75C13.58 10.85 13.48 10.95 13.38 11.05L12.43 12.06C12.33 12.16 12.17 12.22 12 12.22C11.92 12.22 11.72 12.21 11.57 12.05L10.59 11.02C10.49 10.91 10.37 10.82 10.34 10.8C9.61998 10.25 8.88998 9.8 7.34998 9.8C6.42998 9.8 5.63998 9.89 4.91998 10.08C4.87998 10.09 4.82998 10.1 4.78998 10.12V8.42C4.78998 6.35 4.78998 4 9.20998 4H11.33V7.45L10.68 6.8C10.41 6.53 9.98998 6.53 9.71998 6.8C9.45998 7.06 9.45998 7.49 9.71998 7.75L11.52 9.55C11.53 9.56 11.54 9.56 11.54 9.57C11.6 9.62 11.67 9.67 11.74 9.7C11.83 9.73 11.91 9.75 12 9.75C12.09 9.75 12.17 9.73 12.26 9.7C12.34 9.67 12.41 9.62 12.48 9.55L14.28 7.75C14.54 7.49 14.54 7.06 14.28 6.8C14.01 6.53 13.59 6.53 13.32 6.8L12.67 7.45V4H14.79C19.21 4 19.21 6.35 19.21 8.42Z" fill="#292D32"/>
</svg>
