<svg width="24" height="24" viewBox="0 0 24 24" fill="none" xmlns="http://www.w3.org/2000/svg">
<path d="M18.69 11.53C18.12 11.38 17.45 11.3 16.65 11.3C15.54 11.3 15.13 11.57 14.56 12C14.53 12.02 14.5 12.05 14.47 12.08L13.52 13.09C12.73 13.94 11.28 13.94 10.48 13.09L9.52999 12.09C9.49999 12.05 9.46999 12.02 9.43999 12C8.85999 11.57 8.44999 11.3 7.34999 11.3C6.54999 11.3 5.87999 11.37 5.30999 11.53C2.92999 12.17 2.92999 14.06 2.92999 15.72V16.65C2.92999 19.16 2.92999 22 8.27999 22H15.72C19.27 22 21.07 20.2 21.07 16.65V15.72C21.07 14.06 21.07 12.17 18.69 11.53Z" fill="#292D32"/>
<path d="M14.79 2H9.20998C4.78998 2 4.78998 4.35 4.78998 6.42V10.12C4.82998 10.1 4.87998 10.09 4.91998 10.08C5.61998 9.89 6.40998 9.8 7.34998 9.8C8.88998 9.8 9.61998 10.25 10.34 10.8C10.44 10.87 10.54 10.96 10.63 11.06L11.57 12.05C11.67 12.16 11.83 12.22 12 12.22C12.17 12.22 12.33 12.16 12.42 12.06L13.38 11.05C13.46 10.97 13.55 10.88 13.65 10.81C14.39 10.25 15.11 9.8 16.65 9.8C17.59 9.8 18.38 9.89 19.08 10.08C19.12 10.09 19.17 10.1 19.21 10.12V6.42C19.21 4.35 19.21 2 14.79 2ZM13.55 8.5H10.45C10.07 8.5 9.74998 8.18 9.74998 7.8C9.74998 7.41 10.07 7.1 10.45 7.1H13.55C13.93 7.1 14.25 7.41 14.25 7.8C14.25 8.18 13.93 8.5 13.55 8.5ZM14.33 5.71H9.66998C9.28998 5.71 8.97998 5.39 8.97998 5.01C8.97998 4.62 9.28998 4.31 9.66998 4.31H14.33C14.71 4.31 15.02 4.62 15.02 5.01C15.02 5.39 14.71 5.71 14.33 5.71Z" fill="#292D32"/>
</svg>
