<svg width="24" height="24" viewBox="0 0 24 24" fill="none" xmlns="http://www.w3.org/2000/svg">
<path d="M5 13.5C2.79 13.5 1 15.29 1 17.5C1 18.25 1.21 18.96 1.58 19.56C2.27 20.72 3.54 21.5 5 21.5C6.46 21.5 7.73 20.72 8.42 19.56C8.79 18.96 9 18.25 9 17.5C9 15.29 7.21 13.5 5 13.5ZM6.97 17.17L4.84 19.14C4.7 19.27 4.51 19.34 4.33 19.34C4.14 19.34 3.95 19.27 3.8 19.12L2.81 18.13C2.52 17.84 2.52 17.36 2.81 17.07C3.1 16.78 3.58 16.78 3.87 17.07L4.35 17.55L5.95 16.07C6.25 15.79 6.73 15.81 7.01 16.11C7.29 16.41 7.27 16.89 6.97 17.17Z" fill="#292D32"/>
<path d="M17.25 2.42999H7.75C4.9 2.42999 3 4.32999 3 7.17999V11.64C3 11.99 3.36 12.24 3.7 12.15C4.12 12.05 4.55 12 5 12C7.86 12 10.22 14.32 10.48 17.13C10.5 17.41 10.73 17.63 11 17.63H11.55L15.78 20.45C16.4 20.87 17.25 20.41 17.25 19.65V17.63C18.67 17.63 19.86 17.15 20.69 16.33C21.52 15.49 22 14.3 22 12.88V7.17999C22 4.32999 20.1 2.42999 17.25 2.42999ZM15.83 10.81H9.17C8.78 10.81 8.46 10.49 8.46 10.1C8.46 9.69999 8.78 9.37999 9.17 9.37999H15.83C16.22 9.37999 16.54 9.69999 16.54 10.1C16.54 10.49 16.22 10.81 15.83 10.81Z" fill="#292D32"/>
</svg>
